<mxfile host="app.diagrams.net" modified="2023-01-25T19:47:00.744Z" agent="5.0 (Windows)" etag="pec0aVTGZ2j_ZnH0Y3y5" version="20.8.11" type="github">
  <diagram id="C5RBs43oDa-KdzZeNtuy" name="Page-1">
    <mxGraphModel dx="1019" dy="582" grid="1" gridSize="10" guides="1" tooltips="1" connect="1" arrows="1" fold="1" page="1" pageScale="1" pageWidth="827" pageHeight="1169" math="0" shadow="0">
      <root>
        <mxCell id="WIyWlLk6GJQsqaUBKTNV-0" />
        <mxCell id="WIyWlLk6GJQsqaUBKTNV-1" parent="WIyWlLk6GJQsqaUBKTNV-0" />
        <mxCell id="apIbsZUHLHdbpMD473yB-7" value="&lt;font style=&quot;font-size: 11px;&quot;&gt;Totem - Diagrama de Estado de Maquina&lt;br&gt;&lt;/font&gt;" style="shape=umlFrame;whiteSpace=wrap;html=1;width=120;height=30;boundedLbl=1;verticalAlign=middle;align=left;spacingLeft=5;movable=1;resizable=1;rotatable=1;deletable=1;editable=1;connectable=1;" parent="WIyWlLk6GJQsqaUBKTNV-1" vertex="1">
          <mxGeometry x="10" y="130" width="1000" height="570" as="geometry" />
        </mxCell>
        <mxCell id="apIbsZUHLHdbpMD473yB-9" style="edgeStyle=orthogonalEdgeStyle;rounded=0;orthogonalLoop=1;jettySize=auto;html=1;fontSize=11;" parent="WIyWlLk6GJQsqaUBKTNV-1" source="apIbsZUHLHdbpMD473yB-2" target="apIbsZUHLHdbpMD473yB-8" edge="1">
          <mxGeometry relative="1" as="geometry" />
        </mxCell>
        <mxCell id="apIbsZUHLHdbpMD473yB-2" value="" style="ellipse;fillColor=strokeColor;" parent="WIyWlLk6GJQsqaUBKTNV-1" vertex="1">
          <mxGeometry x="145" y="145" width="30" height="30" as="geometry" />
        </mxCell>
        <mxCell id="apIbsZUHLHdbpMD473yB-12" value="" style="edgeStyle=orthogonalEdgeStyle;rounded=0;orthogonalLoop=1;jettySize=auto;html=1;fontSize=11;" parent="WIyWlLk6GJQsqaUBKTNV-1" source="apIbsZUHLHdbpMD473yB-5" target="apIbsZUHLHdbpMD473yB-11" edge="1">
          <mxGeometry relative="1" as="geometry" />
        </mxCell>
        <mxCell id="apIbsZUHLHdbpMD473yB-18" style="edgeStyle=orthogonalEdgeStyle;rounded=0;orthogonalLoop=1;jettySize=auto;html=1;fontSize=11;" parent="WIyWlLk6GJQsqaUBKTNV-1" source="apIbsZUHLHdbpMD473yB-5" target="apIbsZUHLHdbpMD473yB-15" edge="1">
          <mxGeometry relative="1" as="geometry" />
        </mxCell>
        <mxCell id="apIbsZUHLHdbpMD473yB-5" value="" style="rhombus;movable=1;resizable=1;rotatable=1;deletable=1;editable=1;connectable=1;" parent="WIyWlLk6GJQsqaUBKTNV-1" vertex="1">
          <mxGeometry x="145" y="385" width="30" height="30" as="geometry" />
        </mxCell>
        <mxCell id="apIbsZUHLHdbpMD473yB-10" style="edgeStyle=orthogonalEdgeStyle;rounded=0;orthogonalLoop=1;jettySize=auto;html=1;fontSize=11;" parent="WIyWlLk6GJQsqaUBKTNV-1" source="apIbsZUHLHdbpMD473yB-8" target="apIbsZUHLHdbpMD473yB-5" edge="1">
          <mxGeometry relative="1" as="geometry" />
        </mxCell>
        <mxCell id="apIbsZUHLHdbpMD473yB-8" value="Exibe a Tela Inicial" style="html=1;align=center;verticalAlign=middle;rounded=1;absoluteArcSize=1;arcSize=10;dashed=0;fontSize=11;fillColor=#ffe6cc;strokeColor=#d79b00;" parent="WIyWlLk6GJQsqaUBKTNV-1" vertex="1">
          <mxGeometry x="90" y="260" width="140" height="40" as="geometry" />
        </mxCell>
        <mxCell id="RkvW5-VgE_bA4w8eNXtX-11" style="edgeStyle=orthogonalEdgeStyle;rounded=0;orthogonalLoop=1;jettySize=auto;html=1;entryX=-0.1;entryY=0.725;entryDx=0;entryDy=0;entryPerimeter=0;" edge="1" parent="WIyWlLk6GJQsqaUBKTNV-1" source="apIbsZUHLHdbpMD473yB-11" target="RkvW5-VgE_bA4w8eNXtX-10">
          <mxGeometry relative="1" as="geometry" />
        </mxCell>
        <mxCell id="apIbsZUHLHdbpMD473yB-11" value="Acessa Dados" style="html=1;align=center;verticalAlign=middle;rounded=1;absoluteArcSize=1;arcSize=10;dashed=0;fontSize=11;fillColor=#f8cecc;strokeColor=#b85450;" parent="WIyWlLk6GJQsqaUBKTNV-1" vertex="1">
          <mxGeometry x="90" y="560" width="140" height="40" as="geometry" />
        </mxCell>
        <mxCell id="apIbsZUHLHdbpMD473yB-13" value="Login Instrutor" style="text;html=1;align=center;verticalAlign=middle;resizable=0;points=[];autosize=1;strokeColor=none;fillColor=none;fontSize=12;" parent="WIyWlLk6GJQsqaUBKTNV-1" vertex="1">
          <mxGeometry x="60" y="475" width="100" height="30" as="geometry" />
        </mxCell>
        <mxCell id="apIbsZUHLHdbpMD473yB-14" value="Convidado" style="text;html=1;align=center;verticalAlign=middle;resizable=0;points=[];autosize=1;strokeColor=none;fillColor=none;fontSize=12;" parent="WIyWlLk6GJQsqaUBKTNV-1" vertex="1">
          <mxGeometry x="200" y="370" width="80" height="30" as="geometry" />
        </mxCell>
        <mxCell id="apIbsZUHLHdbpMD473yB-20" style="edgeStyle=orthogonalEdgeStyle;rounded=0;orthogonalLoop=1;jettySize=auto;html=1;fontSize=12;" parent="WIyWlLk6GJQsqaUBKTNV-1" source="apIbsZUHLHdbpMD473yB-15" target="apIbsZUHLHdbpMD473yB-19" edge="1">
          <mxGeometry relative="1" as="geometry" />
        </mxCell>
        <mxCell id="apIbsZUHLHdbpMD473yB-15" value="&lt;div&gt;Exibe as opções de&lt;/div&gt;&lt;div&gt;&amp;nbsp;experimentos&lt;/div&gt;" style="html=1;align=center;verticalAlign=middle;rounded=1;absoluteArcSize=1;arcSize=10;dashed=0;fontSize=11;fillColor=#fff2cc;strokeColor=#d6b656;" parent="WIyWlLk6GJQsqaUBKTNV-1" vertex="1">
          <mxGeometry x="310" y="380" width="140" height="40" as="geometry" />
        </mxCell>
        <mxCell id="apIbsZUHLHdbpMD473yB-25" style="edgeStyle=orthogonalEdgeStyle;rounded=0;orthogonalLoop=1;jettySize=auto;html=1;fontSize=12;" parent="WIyWlLk6GJQsqaUBKTNV-1" source="apIbsZUHLHdbpMD473yB-19" target="apIbsZUHLHdbpMD473yB-21" edge="1">
          <mxGeometry relative="1" as="geometry">
            <Array as="points">
              <mxPoint x="505" y="300" />
            </Array>
          </mxGeometry>
        </mxCell>
        <mxCell id="apIbsZUHLHdbpMD473yB-27" style="edgeStyle=orthogonalEdgeStyle;rounded=0;orthogonalLoop=1;jettySize=auto;html=1;fontSize=12;" parent="WIyWlLk6GJQsqaUBKTNV-1" source="apIbsZUHLHdbpMD473yB-19" target="apIbsZUHLHdbpMD473yB-23" edge="1">
          <mxGeometry relative="1" as="geometry">
            <Array as="points">
              <mxPoint x="505" y="500" />
            </Array>
          </mxGeometry>
        </mxCell>
        <mxCell id="RkvW5-VgE_bA4w8eNXtX-17" value="" style="edgeStyle=orthogonalEdgeStyle;rounded=0;orthogonalLoop=1;jettySize=auto;html=1;" edge="1" parent="WIyWlLk6GJQsqaUBKTNV-1" source="apIbsZUHLHdbpMD473yB-19" target="apIbsZUHLHdbpMD473yB-22">
          <mxGeometry relative="1" as="geometry" />
        </mxCell>
        <mxCell id="apIbsZUHLHdbpMD473yB-19" value="" style="rhombus;movable=1;resizable=1;rotatable=1;deletable=1;editable=1;connectable=1;" parent="WIyWlLk6GJQsqaUBKTNV-1" vertex="1">
          <mxGeometry x="490" y="385" width="30" height="30" as="geometry" />
        </mxCell>
        <mxCell id="apIbsZUHLHdbpMD473yB-59" style="edgeStyle=orthogonalEdgeStyle;rounded=0;orthogonalLoop=1;jettySize=auto;html=1;fontSize=12;" parent="WIyWlLk6GJQsqaUBKTNV-1" source="apIbsZUHLHdbpMD473yB-21" target="apIbsZUHLHdbpMD473yB-58" edge="1">
          <mxGeometry relative="1" as="geometry">
            <Array as="points">
              <mxPoint x="700" y="300" />
              <mxPoint x="700" y="380" />
            </Array>
          </mxGeometry>
        </mxCell>
        <mxCell id="apIbsZUHLHdbpMD473yB-21" value="&lt;div&gt;Inicia Experimento 1:&lt;/div&gt;&lt;div&gt;Smartphone&lt;/div&gt;" style="html=1;align=center;verticalAlign=middle;rounded=1;absoluteArcSize=1;arcSize=10;dashed=0;fontSize=11;fillColor=#dae8fc;strokeColor=#6c8ebf;" parent="WIyWlLk6GJQsqaUBKTNV-1" vertex="1">
          <mxGeometry x="550" y="280" width="140" height="40" as="geometry" />
        </mxCell>
        <mxCell id="5yH__HNOzTVynDghvWRE-1" style="edgeStyle=orthogonalEdgeStyle;rounded=0;orthogonalLoop=1;jettySize=auto;html=1;" parent="WIyWlLk6GJQsqaUBKTNV-1" source="apIbsZUHLHdbpMD473yB-22" target="apIbsZUHLHdbpMD473yB-58" edge="1">
          <mxGeometry relative="1" as="geometry" />
        </mxCell>
        <mxCell id="apIbsZUHLHdbpMD473yB-22" value="Inicia Experimento 2:&lt;div&gt;Protoboard&lt;br&gt;&lt;/div&gt;" style="html=1;align=center;verticalAlign=middle;rounded=1;absoluteArcSize=1;arcSize=10;dashed=0;fontSize=11;fillColor=#d5e8d4;strokeColor=#82b366;" parent="WIyWlLk6GJQsqaUBKTNV-1" vertex="1">
          <mxGeometry x="550" y="380" width="140" height="40" as="geometry" />
        </mxCell>
        <mxCell id="apIbsZUHLHdbpMD473yB-29" style="edgeStyle=orthogonalEdgeStyle;rounded=0;orthogonalLoop=1;jettySize=auto;html=1;fontSize=12;" parent="WIyWlLk6GJQsqaUBKTNV-1" source="apIbsZUHLHdbpMD473yB-23" target="apIbsZUHLHdbpMD473yB-58" edge="1">
          <mxGeometry relative="1" as="geometry">
            <mxPoint x="850" y="420.0000000000001" as="targetPoint" />
            <Array as="points">
              <mxPoint x="700" y="500" />
              <mxPoint x="700" y="420" />
            </Array>
          </mxGeometry>
        </mxCell>
        <mxCell id="apIbsZUHLHdbpMD473yB-23" value="Inicia Experimento 3:&lt;div&gt;Música&lt;br&gt;&lt;/div&gt;" style="html=1;align=center;verticalAlign=middle;rounded=1;absoluteArcSize=1;arcSize=10;dashed=0;fontSize=11;fillColor=#e1d5e7;strokeColor=#9673a6;" parent="WIyWlLk6GJQsqaUBKTNV-1" vertex="1">
          <mxGeometry x="550" y="480" width="140" height="40" as="geometry" />
        </mxCell>
        <mxCell id="apIbsZUHLHdbpMD473yB-24" value="" style="ellipse;html=1;shape=endState;fillColor=strokeColor;fontSize=12;" parent="WIyWlLk6GJQsqaUBKTNV-1" vertex="1">
          <mxGeometry x="282.5" y="665" width="30" height="30" as="geometry" />
        </mxCell>
        <mxCell id="RkvW5-VgE_bA4w8eNXtX-4" style="edgeStyle=orthogonalEdgeStyle;rounded=0;orthogonalLoop=1;jettySize=auto;html=1;entryX=1;entryY=0.5;entryDx=0;entryDy=0;" edge="1" parent="WIyWlLk6GJQsqaUBKTNV-1" source="apIbsZUHLHdbpMD473yB-33" target="apIbsZUHLHdbpMD473yB-44">
          <mxGeometry relative="1" as="geometry" />
        </mxCell>
        <mxCell id="apIbsZUHLHdbpMD473yB-33" value="Avaliação" style="html=1;align=center;verticalAlign=middle;rounded=1;absoluteArcSize=1;arcSize=10;dashed=0;fontSize=11;fillColor=#f8cecc;strokeColor=#b85450;" parent="WIyWlLk6GJQsqaUBKTNV-1" vertex="1">
          <mxGeometry x="750" y="560" width="140" height="40" as="geometry" />
        </mxCell>
        <mxCell id="apIbsZUHLHdbpMD473yB-40" style="edgeStyle=elbowEdgeStyle;rounded=0;orthogonalLoop=1;jettySize=auto;html=1;fontSize=12;" parent="WIyWlLk6GJQsqaUBKTNV-1" source="apIbsZUHLHdbpMD473yB-39" target="apIbsZUHLHdbpMD473yB-15" edge="1">
          <mxGeometry relative="1" as="geometry">
            <mxPoint x="430" y="250" as="targetPoint" />
            <Array as="points">
              <mxPoint x="660" y="240" />
            </Array>
          </mxGeometry>
        </mxCell>
        <mxCell id="apIbsZUHLHdbpMD473yB-41" style="edgeStyle=elbowEdgeStyle;rounded=0;orthogonalLoop=1;jettySize=auto;html=1;fontSize=12;" parent="WIyWlLk6GJQsqaUBKTNV-1" source="apIbsZUHLHdbpMD473yB-39" target="apIbsZUHLHdbpMD473yB-33" edge="1">
          <mxGeometry relative="1" as="geometry" />
        </mxCell>
        <mxCell id="apIbsZUHLHdbpMD473yB-39" value="" style="rhombus;movable=1;resizable=1;rotatable=1;deletable=1;editable=1;connectable=1;" parent="WIyWlLk6GJQsqaUBKTNV-1" vertex="1">
          <mxGeometry x="805" y="385" width="30" height="30" as="geometry" />
        </mxCell>
        <mxCell id="apIbsZUHLHdbpMD473yB-42" value="&lt;div&gt;Todos os experimentos&lt;/div&gt;&lt;div&gt;&amp;nbsp;foram concluídos&lt;/div&gt;" style="text;html=1;align=center;verticalAlign=middle;resizable=0;points=[];autosize=1;strokeColor=none;fillColor=none;fontSize=12;" parent="WIyWlLk6GJQsqaUBKTNV-1" vertex="1">
          <mxGeometry x="835" y="470" width="150" height="40" as="geometry" />
        </mxCell>
        <mxCell id="apIbsZUHLHdbpMD473yB-43" value="&lt;div&gt;Ainda existem experimentos&lt;/div&gt;&lt;div&gt;&amp;nbsp;a concluir&lt;br&gt;&lt;/div&gt;" style="text;html=1;align=center;verticalAlign=middle;resizable=0;points=[];autosize=1;strokeColor=none;fillColor=none;fontSize=12;" parent="WIyWlLk6GJQsqaUBKTNV-1" vertex="1">
          <mxGeometry x="820" y="290" width="180" height="40" as="geometry" />
        </mxCell>
        <mxCell id="5yH__HNOzTVynDghvWRE-9" style="edgeStyle=orthogonalEdgeStyle;rounded=0;orthogonalLoop=1;jettySize=auto;html=1;" parent="WIyWlLk6GJQsqaUBKTNV-1" source="apIbsZUHLHdbpMD473yB-44" target="apIbsZUHLHdbpMD473yB-15" edge="1">
          <mxGeometry relative="1" as="geometry">
            <Array as="points">
              <mxPoint x="380" y="560" />
            </Array>
          </mxGeometry>
        </mxCell>
        <mxCell id="RkvW5-VgE_bA4w8eNXtX-16" style="edgeStyle=orthogonalEdgeStyle;rounded=0;orthogonalLoop=1;jettySize=auto;html=1;entryX=0.1;entryY=0.238;entryDx=0;entryDy=0;entryPerimeter=0;" edge="1" parent="WIyWlLk6GJQsqaUBKTNV-1" source="apIbsZUHLHdbpMD473yB-44" target="RkvW5-VgE_bA4w8eNXtX-10">
          <mxGeometry relative="1" as="geometry" />
        </mxCell>
        <mxCell id="apIbsZUHLHdbpMD473yB-44" value="" style="rhombus;movable=1;resizable=1;rotatable=1;deletable=1;editable=1;connectable=1;" parent="WIyWlLk6GJQsqaUBKTNV-1" vertex="1">
          <mxGeometry x="365" y="565" width="30" height="30" as="geometry" />
        </mxCell>
        <mxCell id="apIbsZUHLHdbpMD473yB-49" value="Desliga o Totem" style="text;html=1;align=center;verticalAlign=middle;resizable=0;points=[];autosize=1;strokeColor=none;fillColor=none;fontSize=12;" parent="WIyWlLk6GJQsqaUBKTNV-1" vertex="1">
          <mxGeometry x="242.5" y="550" width="110" height="30" as="geometry" />
        </mxCell>
        <mxCell id="apIbsZUHLHdbpMD473yB-50" value="Volta a Tela de Seleção &lt;br&gt;de Experimentos" style="text;html=1;align=center;verticalAlign=middle;resizable=0;points=[];autosize=1;strokeColor=none;fillColor=none;fontSize=12;" parent="WIyWlLk6GJQsqaUBKTNV-1" vertex="1">
          <mxGeometry x="240" y="465" width="150" height="40" as="geometry" />
        </mxCell>
        <mxCell id="apIbsZUHLHdbpMD473yB-60" style="edgeStyle=orthogonalEdgeStyle;rounded=0;orthogonalLoop=1;jettySize=auto;html=1;fontSize=12;" parent="WIyWlLk6GJQsqaUBKTNV-1" source="apIbsZUHLHdbpMD473yB-58" target="apIbsZUHLHdbpMD473yB-39" edge="1">
          <mxGeometry relative="1" as="geometry" />
        </mxCell>
        <mxCell id="apIbsZUHLHdbpMD473yB-58" value="" style="html=1;points=[];perimeter=orthogonalPerimeter;fillColor=strokeColor;fontSize=12;rotation=0;" parent="WIyWlLk6GJQsqaUBKTNV-1" vertex="1">
          <mxGeometry x="745" y="360" width="5" height="80" as="geometry" />
        </mxCell>
        <mxCell id="RkvW5-VgE_bA4w8eNXtX-13" style="edgeStyle=orthogonalEdgeStyle;rounded=0;orthogonalLoop=1;jettySize=auto;html=1;" edge="1" parent="WIyWlLk6GJQsqaUBKTNV-1" source="RkvW5-VgE_bA4w8eNXtX-10" target="apIbsZUHLHdbpMD473yB-24">
          <mxGeometry relative="1" as="geometry" />
        </mxCell>
        <mxCell id="RkvW5-VgE_bA4w8eNXtX-10" value="" style="html=1;points=[];perimeter=orthogonalPerimeter;fillColor=strokeColor;fontSize=12;rotation=90;" vertex="1" parent="WIyWlLk6GJQsqaUBKTNV-1">
          <mxGeometry x="295" y="585" width="5" height="80" as="geometry" />
        </mxCell>
      </root>
    </mxGraphModel>
  </diagram>
</mxfile>
